<svg xmlns="http://www.w3.org/2000/svg" version="1.1" xmlns:xlink="http://www.w3.org/1999/xlink" xmlns:svgjs="http://svgjs.dev/svgjs" width="1000" height="750" viewBox="0 0 1000 750"><rect width="1000" height="750" fill="#000000"></rect><g transform="matrix(0.5191111111111111,0,0,0.5191111111111111,240.44444444444446,83)"><svg viewBox="0 0 320 360" data-background-color="#282634" preserveAspectRatio="xMidYMid meet" height="1125" width="1000" xmlns="http://www.w3.org/2000/svg" xmlns:xlink="http://www.w3.org/1999/xlink"><g id="tight-bounds" transform="matrix(1,0,0,1,0,0)"><svg viewBox="0 0 320 360" height="360" width="320"><g><svg></svg></g><g><svg viewBox="0 0 320 360" height="360" width="320"><g><path xmlns="http://www.w3.org/2000/svg" d="M160 42.18c72.417 0 131.943 56.114 137.63 127.014h22.37c-1.137-17.82-5.308-34.882-12.133-51.185-7.962-18.957-19.716-36.398-34.502-50.805-14.787-14.787-31.848-26.161-50.806-34.503-20.095-8.341-40.948-12.891-62.559-12.891-21.611 0-42.464 4.171-62.559 12.512-18.957 7.962-36.398 19.716-50.806 34.503-14.787 14.787-26.161 31.848-34.502 50.805-6.825 16.303-10.995 33.744-12.133 51.185h22.37c5.687-70.521 65.213-126.635 137.63-126.635zM160 318.199c-72.417 0-131.943-56.114-137.63-127.014h-22.37c1.137 17.82 5.308 34.882 12.133 51.185 7.962 18.957 19.716 36.398 34.502 50.805 14.787 14.787 31.848 26.161 50.806 34.503 19.716 8.341 40.569 12.512 62.559 12.512 21.991 0 42.464-4.171 62.559-12.512 18.957-7.962 36.398-19.716 50.806-34.503 14.787-14.787 26.161-31.848 34.502-50.805 6.825-16.303 10.995-33.744 12.133-51.185h-22.37c-5.687 70.9-65.213 127.014-137.63 127.014z" fill="#ffffff" fill-rule="nonzero" stroke="none" stroke-width="1" stroke-linecap="butt" stroke-linejoin="miter" stroke-miterlimit="10" stroke-dasharray="" stroke-dashoffset="0" font-family="none" font-weight="none" font-size="none" text-anchor="none" style="mix-blend-mode: normal" data-fill-palette-color="tertiary"></path></g><g transform="matrix(1,0,0,1,97.17121435680848,90)"><svg viewBox="0 0 125.65757128638305 180" height="180" width="125.65757128638305"><g><svg viewBox="0 0 125.65757128638305 180" height="180" width="125.65757128638305"><g><svg viewBox="0 0 208 297.952599407412" height="180" width="125.65757128638305"><g transform="matrix(1,0,0,1,0,150.0743032613674)"><svg viewBox="0 0 208 147.87829614604462" height="147.87829614604462" width="208"><g id="textblocktransform"><svg viewBox="0 0 208 147.87829614604462" height="147.87829614604462" width="208" id="textblock"><g><svg viewBox="0 0 208 147.87829614604462" height="147.87829614604462" width="208"><g transform="matrix(1,0,0,1,0,0)"><svg width="208" viewBox="3.9000000953674316 -35.04999923706055 49.29999923706055 35.04999923706055" height="147.87829614604462" data-palette-color="#ff4057"><path d="M23.8 0L23.8-19.05 5.5-19.05 5.5 0 3.9 0 3.9-35 5.5-35 5.5-20.65 23.8-20.65 23.8-35 25.4-35 25.4 0 23.8 0ZM51.35 0L38.95-19.15 34.95-13.8 34.95 0 33.35 0 33.35-35.05 34.95-35.05 34.95-16.45 48.75-35.05 50.6-35.05 39.95-20.55 53.2 0 51.35 0Z" opacity="1" transform="matrix(1,0,0,1,0,0)" fill="#ffffff" class="undefined-text-0" data-fill-palette-color="primary" id="text-0"></path></svg></g></svg></g></svg></g></svg></g><g transform="matrix(1,0,0,1,39.727999999999994,0)"><svg viewBox="0 0 128.544 115.16378662039376" height="115.16378662039376" width="128.544"><g><svg xmlns="http://www.w3.org/2000/svg" xmlns:xlink="http://www.w3.org/1999/xlink" version="1.1" x="0" y="0" viewBox="0.9850000143051147 6.086999893188477 98.02999877929688 87.82600402832031" enable-background="new 0 0 100 100" xml:space="preserve" height="115.16378662039376" width="128.544" class="icon-icon-0" data-fill-palette-color="accent" id="icon-0"><path d="M50 6.087C22.93 6.087 0.985 25.748 0.985 50 0.985 74.253 22.93 93.913 50 93.913c27.07 0 49.015-19.66 49.015-43.913C99.015 25.748 77.07 6.087 50 6.087zM74.833 69.08c-32.125 19.166-60.851-0.667-66.379-6.454 14.492 11.331 37.288 14.851 56.379 6.787C76.146 64.037 82.172 56.755 85 47.079c2.829-10.751-0.536-20.965-11.143-27.954-9.899-6.451-22.628-8.601-35.355-5.376-9.899 3.226-17.678 9.139-20.506 17.74-3.535 9.139 2.829 18.277 13.435 23.115 10.606 3.763 25.456 2.15 31.113-6.45 3.535-5.914 2.121-13.44-5.657-17.203-3.535-1.613-8.303-1.955-10.86 0.174-3.521 2.932 1.89 0.361 5.874 2.206 2.517 1.165 5.6 3.165 4.986 8.372-0.772 6.559-11.313 9.677-18.385 7.526-7.778-2.688-11.314-8.601-10.606-14.515 1.414-6.451 7.778-11.289 15.557-12.902 13.435-2.688 25.455 4.301 29.698 13.978 3.535 9.138-2.121 17.739-12.021 23.115-8.484 4.301-18.385 5.376-27.577 2.688-13.435-3.763-22.627-12.901-23.334-24.19C9.511 22.888 22.238 12.137 39.916 8.374c19.799-3.225 39.598 4.301 48.083 18.277C95.777 41.166 91.609 59.071 74.833 69.08z" fill="#ffffff" data-fill-palette-color="accent"></path></svg></g></svg></g><g></g></svg></g></svg></g></svg></g></svg></g><defs></defs></svg><rect width="320" height="360" fill="none" stroke="none" visibility="hidden"></rect></g></svg></g></svg>